<svg width="270" height="58" viewBox="0 0 270 58" fill="none" xmlns="http://www.w3.org/2000/svg">
<path d="M73.7256 43.4189C73.7256 43.0381 73.667 42.6963 73.5498 42.3936C73.4424 42.0811 73.2373 41.7979 72.9346 41.5439C72.6318 41.2803 72.207 41.0215 71.6602 40.7676C71.1133 40.5137 70.4053 40.25 69.5361 39.9766C68.5693 39.6641 67.6514 39.3125 66.7822 38.9219C65.9229 38.5312 65.1611 38.0771 64.4971 37.5596C63.8428 37.0322 63.3252 36.4219 62.9443 35.7285C62.5732 35.0352 62.3877 34.2295 62.3877 33.3115C62.3877 32.4229 62.583 31.6172 62.9736 30.8945C63.3643 30.1621 63.9111 29.5371 64.6143 29.0195C65.3174 28.4922 66.1475 28.0869 67.1045 27.8037C68.0713 27.5205 69.1309 27.3789 70.2832 27.3789C71.8555 27.3789 73.2275 27.6621 74.3994 28.2285C75.5713 28.7949 76.4795 29.5713 77.124 30.5576C77.7783 31.5439 78.1055 32.6719 78.1055 33.9414H73.7402C73.7402 33.3164 73.6084 32.7695 73.3447 32.3008C73.0908 31.8223 72.7002 31.4463 72.1729 31.1729C71.6553 30.8994 71.001 30.7627 70.21 30.7627C69.4482 30.7627 68.8135 30.8799 68.3057 31.1143C67.7979 31.3389 67.417 31.6465 67.1631 32.0371C66.9092 32.418 66.7822 32.8477 66.7822 33.3262C66.7822 33.6875 66.8701 34.0146 67.0459 34.3076C67.2314 34.6006 67.5049 34.874 67.8662 35.1279C68.2275 35.3818 68.6719 35.6211 69.1992 35.8457C69.7266 36.0703 70.3369 36.29 71.0303 36.5049C72.1924 36.8564 73.2129 37.252 74.0918 37.6914C74.9805 38.1309 75.7227 38.624 76.3184 39.1709C76.9141 39.7178 77.3633 40.3379 77.666 41.0312C77.9688 41.7246 78.1201 42.5107 78.1201 43.3896C78.1201 44.3174 77.9395 45.1475 77.5781 45.8799C77.2168 46.6123 76.6943 47.2324 76.0107 47.7402C75.3271 48.248 74.5117 48.6338 73.5645 48.8975C72.6172 49.1611 71.5576 49.293 70.3857 49.293C69.3311 49.293 68.291 49.1562 67.2656 48.8828C66.2402 48.5996 65.3076 48.1748 64.4678 47.6084C63.6377 47.042 62.9736 46.3193 62.4756 45.4404C61.9775 44.5615 61.7285 43.5215 61.7285 42.3203H66.1377C66.1377 42.9844 66.2402 43.5459 66.4453 44.0049C66.6504 44.4639 66.9385 44.835 67.3096 45.1182C67.6904 45.4014 68.1396 45.6064 68.6572 45.7334C69.1846 45.8604 69.7607 45.9238 70.3857 45.9238C71.1475 45.9238 71.7725 45.8164 72.2607 45.6016C72.7588 45.3867 73.125 45.0889 73.3594 44.708C73.6035 44.3271 73.7256 43.8975 73.7256 43.4189ZM93.4717 41.9248H97.8516C97.7637 43.3604 97.3682 44.6348 96.665 45.748C95.9717 46.8613 95 47.7305 93.75 48.3555C92.5098 48.9805 91.0156 49.293 89.2676 49.293C87.9004 49.293 86.6748 49.0586 85.5908 48.5898C84.5068 48.1113 83.5791 47.4277 82.8076 46.5391C82.0459 45.6504 81.4648 44.5762 81.0645 43.3164C80.6641 42.0566 80.4639 40.6455 80.4639 39.083V37.6035C80.4639 36.041 80.6689 34.6299 81.0791 33.3701C81.499 32.1006 82.0947 31.0215 82.8662 30.1328C83.6475 29.2441 84.5801 28.5605 85.6641 28.082C86.748 27.6035 87.959 27.3643 89.2969 27.3643C91.0742 27.3643 92.5732 27.6865 93.7939 28.3311C95.0244 28.9756 95.9766 29.8643 96.6504 30.9971C97.334 32.1299 97.7441 33.4189 97.8809 34.8643H93.4863C93.4375 34.0049 93.2666 33.2773 92.9736 32.6816C92.6807 32.0762 92.2363 31.6221 91.6406 31.3193C91.0547 31.0068 90.2734 30.8506 89.2969 30.8506C88.5645 30.8506 87.9248 30.9873 87.3779 31.2607C86.8311 31.5342 86.3721 31.9492 86.001 32.5059C85.6299 33.0625 85.3516 33.7656 85.166 34.6152C84.9902 35.4551 84.9023 36.4414 84.9023 37.5742V39.083C84.9023 40.1865 84.9854 41.1582 85.1514 41.998C85.3174 42.8281 85.5713 43.5312 85.9131 44.1074C86.2646 44.6738 86.7139 45.1035 87.2607 45.3965C87.8174 45.6797 88.4863 45.8213 89.2676 45.8213C90.1855 45.8213 90.9424 45.6748 91.5381 45.3818C92.1338 45.0889 92.5879 44.6543 92.9004 44.0781C93.2227 43.502 93.4131 42.7842 93.4717 41.9248ZM114.961 36.3584V39.7861H103.828V36.3584H114.961ZM105.132 27.6719V49H100.737V27.6719H105.132ZM118.096 27.6719V49H113.716V27.6719H118.096ZM136.23 45.5723V49H124.878V45.5723H136.23ZM126.313 27.6719V49H121.919V27.6719H126.313ZM134.751 36.3584V39.6982H124.878V36.3584H134.751ZM136.216 27.6719V31.1143H124.878V27.6719H136.216ZM145.342 49H140.698L140.728 45.5723H145.342C146.494 45.5723 147.466 45.3135 148.257 44.7959C149.048 44.2686 149.644 43.502 150.044 42.4961C150.454 41.4902 150.659 40.2744 150.659 38.8486V37.8086C150.659 36.7148 150.542 35.7529 150.308 34.9229C150.083 34.0928 149.746 33.3945 149.297 32.8281C148.848 32.2617 148.296 31.8369 147.642 31.5537C146.987 31.2607 146.235 31.1143 145.386 31.1143H140.61V27.6719H145.386C146.812 27.6719 148.115 27.916 149.297 28.4043C150.488 28.8828 151.519 29.5713 152.388 30.4697C153.257 31.3682 153.926 32.4424 154.395 33.6924C154.873 34.9326 155.112 36.3145 155.112 37.8379V38.8486C155.112 40.3623 154.873 41.7441 154.395 42.9941C153.926 44.2441 153.257 45.3184 152.388 46.2168C151.528 47.1055 150.498 47.7939 149.297 48.2822C148.105 48.7607 146.787 49 145.342 49ZM143.188 27.6719V49H138.794V27.6719H143.188ZM170.083 27.6719H174.463V41.7637C174.463 43.4043 174.111 44.7861 173.408 45.9092C172.715 47.0322 171.753 47.877 170.522 48.4434C169.302 49.0098 167.896 49.293 166.304 49.293C164.712 49.293 163.296 49.0098 162.056 48.4434C160.825 47.877 159.858 47.0322 159.155 45.9092C158.462 44.7861 158.115 43.4043 158.115 41.7637V27.6719H162.51V41.7637C162.51 42.7207 162.661 43.502 162.964 44.1074C163.267 44.7129 163.701 45.1572 164.268 45.4404C164.844 45.7236 165.522 45.8652 166.304 45.8652C167.104 45.8652 167.783 45.7236 168.34 45.4404C168.906 45.1572 169.336 44.7129 169.629 44.1074C169.932 43.502 170.083 42.7207 170.083 41.7637V27.6719ZM191.792 45.5723V49H181.055V45.5723H191.792ZM182.476 27.6719V49H178.081V27.6719H182.476ZM208.623 45.5723V49H197.271V45.5723H208.623ZM198.706 27.6719V49H194.312V27.6719H198.706ZM207.144 36.3584V39.6982H197.271V36.3584H207.144ZM208.608 27.6719V31.1143H197.271V27.6719H208.608Z" fill="url(#paint0_linear_122_239)"/>
<defs>
<linearGradient id="paint0_linear_122_239" x1="135" y1="20" x2="135" y2="58" gradientUnits="userSpaceOnUse">
<stop stop-color="white"/>
<stop offset="1" stop-color="#D9D9D9" stop-opacity="0.8"/>
</linearGradient>
</defs>
</svg>
